PathFileType	4	(x/y/z)	S10_M20_T35
DataRate	CameraRate	NumFrames	NumMarkers	Units	OrigDataRate	OrigDataStartFrame	OrigNumFrames
240	240	5	51	mm	240	352	563
Frame#	Time	Sternum			R.Acromium			L.Acromium			Top.Head			R.ASIS			L.ASIS			R.PSIS			L.PSIS			R.Great.Tro			L.Great.Tro			R.Iliac.Crest			L.Iliac.Crest			V.Sacral			R.Thigh.Upper.Post			R.Thigh.Lower.Ant			R.Thigh.Lower.Post			R.Thigh.Upper.Ant			R.Knee.Lat			R.Knee.Med			R.Shank.Upper.Post			R.Shank.Lower.Ant			R.Shank.Lower.Post			R.Shank.Upper.Ant			R.Ankle.Lat			R.Ankle.Med			R.Heel.Upper			R.Heel.Med			R.Heel.Lat			R.Toe.Lat			R.Toe.Med			R.Toe.Tip			L.Thigh.Upper.Post			L.Thigh.Lower.Ant			L.Thigh.Lower.Post			L.Thigh.Upper.Ant			L.Knee.Lat			L.Knee.Med			L.Shank.Upper.Post			L.Shank.Lower.Ant			L.Shank.Lower.Post			L.Shank.Upper.Ant			L.Ankle.Lat			L.Ankle.Med			L.Heel.Upper			L.Heel.Med			L.Heel.Lat			L.Toe.Lat			L.Toe.Med			L.Toe.Tip			Cervical.Spine			Back			
		X1	Y1	Z1	X2	Y2	Z2	X3	Y3	Z3	X4	Y4	Z4	X5	Y5	Z5	X6	Y6	Z6	X7	Y7	Z7	X8	Y8	Z8	X9	Y9	Z9	X10	Y10	Z10	X11	Y11	Z11	X12	Y12	Z12	X13	Y13	Z13	X14	Y14	Z14	X15	Y15	Z15	X16	Y16	Z16	X17	Y17	Z17	X18	Y18	Z18	X19	Y19	Z19	X20	Y20	Z20	X21	Y21	Z21	X22	Y22	Z22	X23	Y23	Z23	X24	Y24	Z24	X25	Y25	Z25	X26	Y26	Z26	X27	Y27	Z27	X28	Y28	Z28	X29	Y29	Z29	X30	Y30	Z30	X31	Y31	Z31	X32	Y32	Z32	X33	Y33	Z33	X34	Y34	Z34	X35	Y35	Z35	X36	Y36	Z36	X37	Y37	Z37	X38	Y38	Z38	X39	Y39	Z39	X40	Y40	Z40	X41	Y41	Z41	X42	Y42	Z42	X43	Y43	Z43	X44	Y44	Z44	X45	Y45	Z45	X46	Y46	Z46	X47	Y47	Z47	X48	Y48	Z48	X49	Y49	Z49	X50	Y50	Z50	X51	Y51	Z51	

352	1.4625	1080.4	1223.1	319.91	987.3	1386.2	472.75	934.02	1396.1	168.23	896.6	1686.9	344.26	1018.2	946.81	446.82	1032.2	971.33	215.57	825.37	979.93	347.54	834.64	987.41	266.55	923.73	878.36	517	979.94	914.45	150.41	927	1033.2	485.61	965.1	1047	183.56	806.34	950.22	308.25	853.53	686.42	506.52	871.89	592.69	468.98	809.09	610.15	492.61	919.26	669.79	480.72	744.97	499.07	455.03	744.16	506.15	327.07	569.9	340.62	460.78	592.82	253.48	440.6	531.99	277.22	455.71	637.05	316.92	447.65	488.51	170.54	432.11	498.51	174.86	353.4	408.43	152.91	390.11	402.48	126.67	361.23	403.32	127.14	422.93	552.78	41.945	451.97	571.94	41.759	341.48	632.25	44.053	376.08	1042.1	642.77	157.14	1141.1	598.31	183.21	1079.2	557.32	180.52	1110.5	681.2	160.46	1149.6	498.52	190.67	1153.7	497.69	321.68	1173.9	277.23	189.69	1269.7	223.61	203.38	1208	207.3	197.61	1236.9	292.71	196.04	1286	107.04	207.11	1294.3	120.59	294.93	1237.2	65.611	256.16	1254.3	37.339	288.16	1249.1	38.006	222.18	1418.2	75.153	188.7	1439.2	95.196	293.33	1486.6	125.2	247.4	886.45	1446.8	343.88	798.31	1238.6	342.53
353	1.4667	1087.3	1223.1	318.83	994.04	1386.2	471.63	940.2	1395.6	167.23	902.15	1686.6	343.22	1025	946.35	446.23	1038.9	971.51	214.95	832.13	979.79	346.85	841.39	987.54	265.89	930.34	877.69	516.21	987.01	915.01	149.7	933.87	1032.8	484.99	971.9	1047.2	182.93	813.1	950.18	307.45	859.95	685.98	505.66	878.36	592.15	468.37	815.52	609.67	491.8	925.72	669.26	480.03	751.37	498.63	454.5	750.86	505.45	326.42	574.81	341.95	460.37	596.87	254.51	440.62	536.27	278.9	455.46	641.71	317.55	447.54	491.73	172.61	432.24	501.84	176.56	353.59	411.71	156.39	390.08	405.22	130.33	361.15	406.02	130.7	422.85	553.45	42.239	452.01	572.41	41.788	341.56	632.46	43.948	375.99	1049.1	643.46	156.79	1148	598.9	183.31	1086	557.95	180.25	1117.6	681.83	160.51	1156.3	499.02	190.7	1159.1	498.01	321.7	1178.8	277.64	189.76	1273.9	223.06	203.63	1212.2	207.38	197.65	1241.9	292.5	196.34	1288.5	106.55	207.12	1297	119.61	295.18	1238.9	66.487	256.13	1255.2	37.694	288.21	1250	38.638	222.26	1419.9	71.796	188.75	1441.6	91.222	293.27	1489.7	120.16	247.38	892.76	1446.6	342.93	804.93	1238.2	342.09
354	1.4708	1094.1	1223.1	317.75	1000.8	1386.3	470.51	946.36	1395.1	166.25	907.69	1686.4	342.19	1031.7	945.93	445.63	1045.7	971.76	214.34	838.89	979.7	346.17	848.13	987.73	265.24	936.97	877.06	515.41	994.06	915.66	148.99	940.76	1032.4	484.37	978.7	1047.4	182.33	819.87	950.2	306.66	866.46	685.53	504.79	884.98	591.6	467.75	822.08	609.16	490.99	932.28	668.76	479.34	757.93	498.14	453.98	757.74	504.69	325.79	579.89	343.28	459.95	601.08	255.54	440.65	540.71	280.6	455.19	646.54	318.16	447.43	495.11	174.7	432.38	505.34	178.28	353.79	415.22	159.95	390.03	408.15	134.09	361.06	408.92	134.39	422.77	554.16	42.579	452.04	572.89	41.849	341.64	632.69	43.828	375.9	1056.2	644.23	156.39	1155	599.58	183.37	1093	558.66	179.93	1124.7	682.55	160.53	1163	499.59	190.72	1164.6	498.43	321.69	1183.6	278.11	189.78	1278.1	222.56	203.84	1216.2	207.53	197.66	1246.8	292.34	196.58	1290.9	106.11	207.11	1299.7	118.72	295.36	1240.5	67.366	256.08	1256.1	38.102	288.25	1250.8	39.283	222.33	1421.6	68.574	188.74	1443.8	87.421	293.17	1492.6	115.27	247.28	899.06	1446.4	341.99	811.54	1237.9	341.67
355	1.475	1100.9	1223.2	316.66	1007.5	1386.4	469.39	952.51	1394.7	165.28	913.23	1686.1	341.16	1038.5	945.57	445.02	1052.4	972.08	213.73	845.65	979.68	345.52	854.85	987.99	264.61	943.63	876.45	514.61	1001.1	916.39	148.29	947.66	1032.1	483.76	985.48	1047.7	181.73	826.62	950.28	305.89	873.06	685.07	503.92	891.73	591.06	467.14	828.77	608.62	490.19	938.94	668.29	478.64	764.67	497.6	453.49	764.8	503.86	325.19	585.14	344.61	459.52	605.45	256.57	440.7	545.32	282.3	454.92	651.53	318.75	447.35	498.66	176.83	432.51	509.01	180.02	353.97	418.94	163.61	389.98	411.27	137.97	360.98	412.03	138.21	422.68	554.92	42.973	452.06	573.41	41.95	341.7	632.95	43.689	375.79	1063.3	645.08	155.94	1161.9	600.37	183.41	1099.9	559.45	179.55	1131.8	683.37	160.54	1169.8	500.23	190.72	1170	498.95	321.66	1188.4	278.64	189.75	1282.1	222.1	204.01	1220.2	207.75	197.61	1251.6	292.23	196.76	1293.2	105.72	207.07	1302.3	117.93	295.49	1242	68.235	256.03	1256.9	38.549	288.27	1251.6	39.929	222.38	1423.1	65.505	188.69	1445.9	83.803	293.02	1495.3	110.56	247.12	905.35	1446.3	341.06	818.14	1237.6	341.26
356	1.4792	1107.7	1223.3	315.57	1014.3	1386.6	468.27	958.64	1394.4	164.32	918.76	1686	340.14	1045.2	945.25	444.39	1059.1	972.47	213.12	852.38	979.71	344.88	861.54	988.32	264	950.32	875.88	513.81	1008.1	917.21	147.58	954.57	1031.8	483.15	992.23	1048.1	181.15	833.35	950.43	305.15	879.76	684.61	503.05	898.63	590.53	466.54	835.59	608.05	489.39	945.71	667.85	477.93	771.59	497.01	453.04	772.07	502.96	324.61	590.58	345.93	459.09	609.99	257.6	440.77	550.11	284	454.63	656.69	319.33	447.29	502.38	178.99	432.65	512.86	181.8	354.15	422.91	167.37	389.93	414.61	141.96	360.9	415.35	142.16	422.61	555.75	43.431	452.08	573.96	42.103	341.76	633.25	43.526	375.67	1070.5	646	155.43	1168.9	601.25	183.44	1106.9	560.33	179.11	1138.9	684.29	160.51	1176.6	500.94	190.72	1175.6	499.56	321.6	1193.1	279.24	189.66	1286.1	221.69	204.14	1224	208.03	197.51	1256.4	292.17	196.9	1295.4	105.38	207.02	1304.7	117.23	295.57	1243.5	69.08	255.98	1257.7	39.021	288.29	1252.4	40.567	222.42	1424.5	62.603	188.6	1447.9	80.378	292.85	1497.9	106.04	246.92	911.62	1446.3	340.15	824.72	1237.4	340.89
